<svg width="16" height="17" viewBox="0 0 16 17" fill="none" xmlns="http://www.w3.org/2000/svg">
<path d="M4.99455 10.7573C6.05185 8.60528 6.58116 7.52928 7.34114 7.27261C7.73469 7.13996 8.16087 7.13996 8.55443 7.27261C9.3144 7.52928 9.84372 8.60528 10.901 10.7573L11.4863 11.9506C11.7597 12.5059 11.8957 12.7839 11.9283 12.9733C12.0623 13.7593 11.4817 14.4833 10.6977 14.5066C10.509 14.5119 10.2144 14.4313 9.6244 14.2693C9.40177 14.2049 9.17723 14.1473 8.95109 14.0966C8.28895 13.9625 7.60663 13.9625 6.94449 14.0966C6.77649 14.1306 6.60783 14.1766 6.27118 14.2699C5.6812 14.4313 5.38654 14.5119 5.19788 14.5066C4.41457 14.4833 3.83326 13.7593 3.96725 12.9733C3.99925 12.7839 4.13591 12.5066 4.40924 11.9499L4.99455 10.7573ZM4.04457 4.19128C4.31923 5.27861 5.09521 6.00261 5.77785 5.80861C6.46116 5.61395 6.79248 4.57528 6.51782 3.48861C6.24317 2.40128 5.46719 1.67728 4.78455 1.87128C4.10124 2.06595 3.76992 3.10461 4.04457 4.19128ZM11.851 4.19128C11.5763 5.27861 10.8004 6.00261 10.1177 5.80861C9.4344 5.61395 9.10307 4.57528 9.37773 3.48861C9.65239 2.40128 10.4284 1.67728 11.111 1.87128C11.7943 2.06595 12.1256 3.10461 11.851 4.19128ZM1.416 8.70461C1.71599 9.50795 2.4213 9.99595 2.99128 9.79461C3.56126 9.59328 3.77992 8.77861 3.47993 7.97461C3.17994 7.17195 2.47463 6.68395 1.90465 6.88528C1.33467 7.08661 1.11601 7.90128 1.416 8.70528L1.416 8.70461ZM14.4796 8.70461C14.1796 9.50795 13.4743 9.99595 12.9043 9.79461C12.3343 9.59328 12.1156 8.77861 12.4156 7.97461C12.7156 7.17195 13.4209 6.68395 13.9909 6.88528C14.5609 7.08661 14.7796 7.90128 14.4796 8.70528L14.4796 8.70461Z" fill="#D2D2D2" stroke="#D2D2D2" stroke-width="0.503982"/>
</svg>
